<svg version="1.1" id="Layer_1" xmlns="http://www.w3.org/2000/svg" xmlns:xlink="http://www.w3.org/1999/xlink" x="0px" y="0px"
	 width="100%" viewBox="0 0 1762 1303" enable-background="new 0 0 1762 1303" xml:space="preserve">
<path fill="#A6ADBA" opacity="1.000000" stroke="none" 
	d="
M970.468628,1304.000000 
	C967.239502,1303.047974 964.546509,1301.626099 961.707825,1301.217896 
	C937.466003,1297.731201 914.659363,1289.729980 892.894958,1278.846558 
	C875.186890,1269.991577 859.055969,1258.686646 844.036438,1245.678345 
	C819.437683,1224.373413 800.217468,1199.008667 786.052551,1169.871948 
	C775.406128,1147.972534 767.846313,1124.917480 765.128113,1100.642822 
	C763.359009,1084.843750 762.186035,1068.890259 762.134399,1053.001221 
	C761.852112,966.171875 762.195312,879.340332 761.885071,792.511108 
	C761.787659,765.239502 755.572327,738.922180 746.133423,713.383423 
	C736.502014,687.323608 723.025269,663.374023 705.744690,641.660583 
	C694.564148,627.611938 682.063416,614.836304 668.155518,603.320984 
	C650.503845,588.705994 631.413391,576.594482 610.719910,566.886841 
	C590.639526,557.466797 569.742981,550.599792 547.840088,546.983276 
	C543.534607,546.272400 541.876282,544.600220 541.886414,539.891296 
	C542.048584,464.394226 542.000061,388.896729 542.000488,313.399323 
	C542.000549,305.064240 542.021851,304.920898 550.148438,305.967865 
	C565.089233,307.892609 580.113281,309.422089 594.911255,312.153381 
	C631.583008,318.921875 666.945435,330.103210 701.147034,345.011963 
	C731.076538,358.058502 759.637634,373.620361 786.096497,392.691315 
	C802.742249,404.689178 818.728699,417.685883 834.301697,431.060333 
	C846.146729,441.233154 856.974304,452.606598 868.053955,463.647156 
	C872.841003,468.417328 877.122437,473.694855 882.028625,479.183929 
	C885.869568,474.754181 889.312073,470.353119 893.197449,466.385834 
	C903.808594,455.551208 914.220520,444.476562 925.410156,434.262573 
	C949.468506,412.301880 975.484436,392.870514 1003.309692,375.867035 
	C1038.490479,354.368744 1075.832153,337.702881 1115.160522,325.450928 
	C1138.777588,318.093536 1162.786255,312.188171 1187.330688,309.125580 
	C1206.383667,306.748199 1225.568359,305.077087 1244.745728,304.149780 
	C1261.464722,303.341431 1278.314331,303.106079 1295.003540,304.193146 
	C1351.375610,307.864960 1405.780884,320.510010 1457.854736,342.526978 
	C1498.111328,359.547516 1535.337891,381.828247 1570.003418,408.454132 
	C1592.760742,425.933472 1613.516113,445.633759 1632.877686,466.659637 
	C1657.080566,492.942688 1678.123413,521.702820 1695.987061,552.757080 
	C1713.763672,583.660095 1728.468506,615.907837 1739.375610,649.836304 
	C1747.910522,676.386230 1754.523071,703.418213 1758.065063,731.132019 
	C1759.135254,739.506042 1760.032715,747.902039 1761.085693,756.278381 
	C1761.197876,757.170471 1761.823853,757.998047 1762.605713,758.927795 
	C1763.000000,940.666687 1763.000000,1122.333374 1763.000000,1304.000000 
	C1752.588257,1304.000000 1742.262695,1304.000000 1731.411621,1303.616089 
	C1728.410034,1302.522949 1725.976807,1301.547363 1723.452026,1301.144287 
	C1676.889038,1293.710449 1636.504028,1273.429810 1601.656372,1242.029663 
	C1581.634155,1223.988281 1565.385986,1202.785400 1552.596313,1179.064331 
	C1533.556030,1143.750122 1524.308350,1105.738525 1524.124878,1065.807983 
	C1523.722168,978.155457 1524.193237,890.498840 1523.819214,802.846069 
	C1523.753052,787.333252 1522.179688,771.697632 1519.799438,756.351807 
	C1515.328125,727.524719 1504.811523,700.586243 1490.463257,675.307922 
	C1474.259277,646.760071 1453.402710,621.985046 1427.813232,601.226562 
	C1408.733643,585.749023 1388.026367,572.903015 1365.455200,563.429688 
	C1329.880371,548.498657 1292.806396,540.561157 1253.997925,543.067505 
	C1240.792725,543.920349 1227.530518,544.976929 1214.496460,547.151428 
	C1190.288452,551.190247 1167.041138,558.957947 1145.485840,570.551392 
	C1129.927002,578.919678 1115.081787,588.858765 1100.810547,599.314941 
	C1082.645874,612.623718 1067.401123,629.140442 1053.931396,647.203552 
	C1038.854370,667.422058 1026.811157,689.328125 1018.021423,712.981384 
	C1008.420593,738.817627 1002.130859,765.452759 1002.098877,793.071228 
	C1001.901917,963.380615 1002.000000,1133.690430 1002.000000,1304.000000 
	C991.645752,1304.000000 981.291565,1304.000000 970.468628,1304.000000 
z"/>
<path fill="#2E55DF" opacity="1.000000" stroke="none" 
	d="
M31.531342,1.000000 
	C32.753365,1.663569 33.447964,2.821023 34.268665,2.918672 
	C56.332607,5.543908 77.236786,12.078419 97.614647,20.795557 
	C113.953201,27.784781 129.178268,36.686081 143.294647,47.257858 
	C157.028625,57.543274 169.652451,69.158127 180.971970,82.251343 
	C195.658218,99.238861 207.937439,117.694832 217.398972,137.973328 
	C226.187927,156.810318 232.423309,176.542603 235.987106,197.056335 
	C241.641617,229.604599 239.655838,262.475586 239.996826,295.246796 
	C240.020996,297.569794 240.000000,299.893250 240.000000,302.767456 
	C326.915039,302.767456 413.617859,302.767456 500.659668,302.767456 
	C500.659668,382.687805 500.659668,462.056946 500.659668,541.801697 
	C413.990936,541.801697 327.406769,541.801697 240.000061,541.801697 
	C240.000061,543.909668 240.000046,545.651978 240.000046,547.394287 
	C240.000031,638.207275 239.776031,729.021301 240.184891,819.832397 
	C240.268890,838.487549 244.363297,856.863220 249.441605,874.861023 
	C257.132690,902.118774 269.068237,927.438354 284.995117,950.840393 
	C295.684052,966.545898 307.788483,981.150391 321.701416,994.074829 
	C343.088501,1013.942688 366.967468,1030.277222 393.679291,1042.225342 
	C415.366058,1051.925659 437.847809,1059.115479 461.521667,1061.988159 
	C474.736450,1063.591797 488.006714,1064.738037 502.000000,1066.166748 
	C502.000000,1144.576660 502.000000,1223.819702 502.000000,1303.531372 
	C486.979095,1304.000000 471.958221,1304.000000 456.642639,1303.592285 
	C455.002655,1302.789795 453.678925,1302.175415 452.308014,1302.040527 
	C447.717987,1301.589233 443.044525,1301.688599 438.522675,1300.895142 
	C422.611694,1298.103516 406.718506,1295.188110 390.876984,1292.026978 
	C356.322632,1285.132202 323.351654,1273.328125 291.433258,1258.659424 
	C265.243896,1246.623779 240.187531,1232.432983 216.572662,1215.842773 
	C194.620346,1200.420532 173.580536,1183.837280 154.495331,1164.924561 
	C145.652832,1156.161987 136.971100,1147.214844 128.613800,1137.991333 
	C120.553307,1129.095581 112.372810,1120.191772 105.370132,1110.480225 
	C93.056396,1093.403564 80.545578,1076.315674 70.064995,1058.111328 
	C58.259537,1037.605591 47.559010,1016.304504 38.330143,994.522278 
	C30.097366,975.091003 23.817982,954.734741 18.003199,934.407104 
	C13.307566,917.991821 10.227039,901.077759 7.121830,884.257263 
	C5.102374,873.318115 4.357977,862.145325 2.915962,851.093750 
	C2.815734,850.325623 1.663193,849.694702 1.000002,849.000000 
	C1.000000,566.333313 1.000000,283.666656 1.000000,1.000000 
	C11.072596,1.000000 21.067640,1.000000 31.531342,1.000000 
z"/>
</svg>
